<mxfile host="app.diagrams.net" modified="2023-10-29T17:59:04.540Z" agent="Mozilla/5.0 (Windows NT 10.0; Win64; x64) AppleWebKit/537.36 (KHTML, like Gecko) Chrome/118.0.0.0 Safari/537.36" etag="SdOoDBPj4yeNu-wG0IMh" version="22.0.8" type="device">
  <diagram name="Strona-1" id="ph6ACwDJHtkiUYuGayui">
    <mxGraphModel dx="989" dy="523" grid="1" gridSize="10" guides="1" tooltips="1" connect="1" arrows="1" fold="1" page="1" pageScale="1" pageWidth="827" pageHeight="1169" math="0" shadow="0">
      <root>
        <mxCell id="0" />
        <mxCell id="1" parent="0" />
        <mxCell id="dYKzlRMdg8bYpLBmhQsH-1" value="Actor" style="shape=umlActor;verticalLabelPosition=bottom;verticalAlign=top;html=1;outlineConnect=0;" vertex="1" parent="1">
          <mxGeometry x="70" y="210" width="30" height="60" as="geometry" />
        </mxCell>
        <mxCell id="dYKzlRMdg8bYpLBmhQsH-2" value="Rejestracja w serwisie" style="ellipse;whiteSpace=wrap;html=1;" vertex="1" parent="1">
          <mxGeometry x="190" y="140" width="120" height="50" as="geometry" />
        </mxCell>
        <mxCell id="dYKzlRMdg8bYpLBmhQsH-3" value="Zalogowanie do serwisu" style="ellipse;whiteSpace=wrap;html=1;" vertex="1" parent="1">
          <mxGeometry x="190" y="215" width="120" height="50" as="geometry" />
        </mxCell>
        <mxCell id="dYKzlRMdg8bYpLBmhQsH-4" value="" style="endArrow=none;html=1;rounded=0;entryX=0;entryY=0.5;entryDx=0;entryDy=0;" edge="1" parent="1" source="dYKzlRMdg8bYpLBmhQsH-1" target="dYKzlRMdg8bYpLBmhQsH-2">
          <mxGeometry width="50" height="50" relative="1" as="geometry">
            <mxPoint x="90" y="180" as="sourcePoint" />
            <mxPoint x="140" y="130" as="targetPoint" />
          </mxGeometry>
        </mxCell>
        <mxCell id="dYKzlRMdg8bYpLBmhQsH-5" value="" style="endArrow=none;html=1;rounded=0;entryX=0;entryY=0.5;entryDx=0;entryDy=0;" edge="1" parent="1" source="dYKzlRMdg8bYpLBmhQsH-1" target="dYKzlRMdg8bYpLBmhQsH-3">
          <mxGeometry width="50" height="50" relative="1" as="geometry">
            <mxPoint x="380" y="410" as="sourcePoint" />
            <mxPoint x="430" y="360" as="targetPoint" />
          </mxGeometry>
        </mxCell>
        <mxCell id="dYKzlRMdg8bYpLBmhQsH-7" value="Zalogowanie do serwisu" style="ellipse;whiteSpace=wrap;html=1;" vertex="1" parent="1">
          <mxGeometry x="190" y="290" width="120" height="50" as="geometry" />
        </mxCell>
      </root>
    </mxGraphModel>
  </diagram>
</mxfile>
